<?xml version="1.0" encoding="utf-8"?>
<!-- Generator: Adobe Illustrator 26.0.0, SVG Export Plug-In . SVG Version: 6.00 Build 0)  -->
<svg version="1.1" id="Calque_1" xmlns="http://www.w3.org/2000/svg" xmlns:xlink="http://www.w3.org/1999/xlink" x="0px" y="0px"
	 viewBox="0 0 841.89 595.28" style="enable-background:new 0 0 841.89 595.28;" xml:space="preserve">
<style type="text/css">
	.st0{fill:none;}
	.st1{fill:#03AEF9;}
	.st2{fill:#08F9B4;}
	.st3{fill:#F7F2F2;}
</style>
<g>
	<polygon class="st0" points="501.61,230.7 501.61,230.53 501.53,230.7 	"/>
	<path class="st1" d="M205.59,336.7h6.43c-2.18,0-4.32-0.14-6.43-0.39V336.7z"/>
	<path class="st2" d="M452.23,293.52l37.82-49.71l11.42-13.11h-17.16c0,0.08,0.01,0.16,0.01,0.24c0.01,3.75-1.18,7.24-2.7,10.62
		c-2.61,5.84-6.14,11.13-10.07,16.12c-5.17,6.57-10.52,13-15.78,19.5c-1.17,1.45-2.32,2.92-3.51,4.42c-1.35-1.7-2.66-3.37-4-5.02
		c-5.02-6.18-10.11-12.3-15.04-18.55c-3.88-4.93-7.33-10.15-10.06-15.83c-1.88-3.91-2.85-7.74-3.01-11.5h-17.17l10.73,12.64
		L452.23,293.52z"/>
	<rect x="141.67" y="230.7" class="st1" width="0" height="106"/>
	<rect x="338.58" y="230.53" class="st3" width="63.13" height="0.17"/>
	<polygon class="st3" points="341.65,336.53 401.71,336.53 401.71,319.96 355.21,319.96 355.21,290.64 395.33,290.64 395.33,274.07 
		355.21,274.07 355.21,246.91 401.71,246.91 401.71,230.7 338.58,230.7 338.58,332.53 	"/>
	<polygon class="st3" points="451.57,338.7 452.69,338.7 453.59,336.7 450.66,336.7 	"/>
	<polygon class="st3" points="501.61,230.53 501.47,230.7 501.53,230.7 	"/>
	<polygon class="st3" points="402.84,230.53 402.92,230.7 402.98,230.7 	"/>
	<polygon class="st3" points="501.47,230.7 490.05,243.81 452.23,293.52 413.71,243.34 402.98,230.7 402.92,230.7 450.66,336.7 
		453.59,336.7 501.53,230.7 	"/>
	<rect x="501.61" y="230.53" class="st3" width="63.13" height="0.17"/>
	<rect x="633.26" y="230.43" class="st3" width="16.7" height="0.26"/>
	<rect x="564.74" y="336.7" class="st3" width="16.64" height="0.13"/>
	<path class="st3" d="M649.96,230.7h-16.7v68.85l-65.9-68.85h-2.62h-63.13v105.84h63.13v0.17h16.64v-68.98l66.03,68.98h2.55v-89.5
		h28.41v89.5h16.7v-89.5h28.41V230.7H649.96z M564.74,319.96h-46.49v-29.33h40.11v-16.57h-40.11v-27.16h46.49V319.96z"/>
	<path class="st2" d="M212.08,230.7c-26.64,0-48.91,16.5-53.78,41.16v20.57c2.06,10.64,7.25,20.2,14.56,27.7h-14.56v-27.7
		c-0.65-3.34-1-6.79-1-10.31c0-3.55,0.35-6.98,1-10.26V230.7h-16.64v106h63.92v-0.39c2.11,0.25,4.25,0.39,6.43,0.39
		c26.24,0,48.35-18.59,53.68-43.15v-22.78C260.37,246.71,238.27,230.7,212.08,230.7z M212.02,319.87
		c-20.91,0-37.94-17.03-37.94-37.88c0-20.98,17.1-38.65,38.01-38.65c20.91,0,38.01,17.67,38.01,38.65
		C250.09,302.83,232.93,319.87,212.02,319.87z"/>
	<path class="st2" d="M158.31,292.43v-20.57c-0.65,3.28-1,6.71-1,10.26C157.31,285.64,157.66,289.09,158.31,292.43z"/>
	<path class="st2" d="M338.58,336.53v-4.01l-38.16-49.81l37.61-52.01h-19.33l-36.43,50.76V230.7h-16.57v40.07
		c0.8,3.61,1.23,7.4,1.23,11.35c0,3.92-0.43,7.74-1.23,11.42v43.15h16.57v-51.29l39.19,51.29h20.32l-0.13-0.17H338.58z"/>
	<polygon class="st2" points="338.58,336.53 341.65,336.53 338.58,332.53 	"/>
	<path class="st2" d="M266.93,282.12c0-3.95-0.43-7.74-1.23-11.35v22.78C266.49,289.86,266.93,286.04,266.93,282.12z"/>
	<path class="st3" d="M484.31,230.7c-0.09-10.48-4.31-19-12.66-25.34c-14.57-11.06-35.59-7.73-45.84,7.36
		c-3.91,5.76-5.9,11.76-5.64,17.98c0.16,3.76,1.13,7.59,3.01,11.5c2.73,5.68,6.18,10.91,10.06,15.83
		c4.93,6.25,10.02,12.37,15.04,18.55c1.34,1.65,2.65,3.32,4,5.02c1.19-1.5,2.34-2.97,3.51-4.42c5.27-6.5,10.61-12.93,15.78-19.5
		c3.93-5,7.46-10.29,10.07-16.12c1.51-3.38,2.71-6.86,2.7-10.62C484.32,230.86,484.31,230.78,484.31,230.7z M452.33,243.81
		c-7.46-0.03-13.35-5.81-13.41-13.11c0-0.06-0.01-0.13-0.01-0.19c0.04-7.19,6.04-13.09,13.31-13.07
		c7.47,0.02,13.35,5.86,13.37,13.26c0,0.03,0,0.06,0,0.09C465.57,237.91,459.54,243.84,452.33,243.81z"/>
</g>
</svg>
